<svg width="84" height="82" viewBox="0 0 84 82" fill="none" xmlns="http://www.w3.org/2000/svg">
<path d="M29.6751 46.0837L30.7556 46.2902C30.8253 45.9253 30.7062 45.5499 30.4388 45.292L29.6751 46.0837ZM29.6751 6.43054L28.961 5.5939L29.6751 6.43054ZM55.7528 6.43054L55.0508 7.27745L55.7528 6.43054ZM56.5 46L55.732 45.2125C55.4838 45.4545 55.3642 45.7995 55.4094 46.1433L56.5 46ZM82.0572 69.0704C82.6639 69.0388 83.1301 68.5214 83.0985 67.9147C83.0669 67.308 82.5495 66.8418 81.9428 66.8734L82.0572 69.0704ZM2.05663 66.8734C1.44992 66.8421 0.932734 67.3086 0.901458 67.9153C0.870182 68.522 1.33666 69.0392 1.94337 69.0705L2.05663 66.8734ZM21.179 63.069C25.0182 59.7654 27.4054 55.5629 28.83 52.2249C29.5447 50.5504 30.0236 49.0784 30.3247 48.0213C30.4753 47.4924 30.5818 47.0662 30.6512 46.7691C30.6859 46.6206 30.7114 46.5042 30.7285 46.4233C30.737 46.3828 30.7435 46.3512 30.748 46.3289C30.7502 46.3178 30.752 46.3089 30.7532 46.3024C30.7539 46.2992 30.7544 46.2966 30.7548 46.2945C30.755 46.2935 30.7551 46.2926 30.7553 46.2919C30.7553 46.2915 30.7554 46.2911 30.7555 46.2909C30.7555 46.2905 30.7556 46.2902 29.6751 46.0837C28.5947 45.8773 28.5947 45.877 28.5948 45.8768C28.5948 45.8767 28.5948 45.8765 28.5948 45.8765C28.5949 45.8764 28.5949 45.8764 28.5948 45.8765C28.5948 45.8769 28.5946 45.8778 28.5943 45.8793C28.5937 45.8824 28.5926 45.8877 28.5911 45.8954C28.588 45.9107 28.583 45.9351 28.576 45.9683C28.562 46.0346 28.5399 46.1359 28.5089 46.2687C28.4468 46.5345 28.3491 46.9264 28.2088 47.4187C27.9282 48.404 27.4787 49.7867 26.8066 51.3613C25.4578 54.5215 23.2382 58.3947 19.7441 61.4014L21.179 63.069ZM29.6751 46.0837C30.4388 45.292 30.4391 45.2923 30.4394 45.2926C30.4394 45.2926 30.4397 45.2928 30.4398 45.2929C30.44 45.2931 30.4401 45.2932 30.44 45.2932C30.44 45.2932 30.4395 45.2927 30.4386 45.2918C30.4368 45.2901 30.4333 45.2866 30.4282 45.2815C30.4179 45.2713 30.4009 45.2544 30.3779 45.231C30.3317 45.184 30.2609 45.1108 30.169 45.0118C29.9851 44.8139 29.717 44.5136 29.3926 44.1161C28.7434 43.3205 27.8716 42.1394 26.9986 40.6142C25.2515 37.5624 23.5127 33.1584 23.5127 27.7171L21.3127 27.7171C21.3127 33.6367 23.2051 38.416 25.0893 41.7073C26.0318 43.3537 26.9757 44.634 27.6882 45.5071C28.0446 45.9439 28.3439 46.2796 28.5572 46.5092C28.6639 46.624 28.7491 46.7124 28.8093 46.7736C28.8394 46.8042 28.8633 46.8281 28.8805 46.8451C28.889 46.8535 28.896 46.8603 28.9011 46.8654C28.9037 46.8679 28.9059 46.87 28.9076 46.8717C28.9085 46.8725 28.9092 46.8733 28.9099 46.8739C28.9102 46.8742 28.9106 46.8746 28.9107 46.8747C28.9111 46.8751 28.9114 46.8754 29.6751 46.0837ZM23.5127 27.7171C23.5127 21.7359 23.8413 17.8455 24.8493 14.842C25.8365 11.9003 27.5042 9.72994 30.3893 7.26717L28.961 5.5939C25.8795 8.22429 23.916 10.7082 22.7636 14.142C21.632 17.514 21.3127 21.7203 21.3127 27.7171L23.5127 27.7171ZM30.3893 7.26717C33.5508 4.56843 37.9889 3.12745 42.5419 3.10039C47.0919 3.07334 51.6507 4.45927 55.0508 7.27745L56.4548 5.58362C52.5916 2.38171 47.5051 0.870845 42.5288 0.900426C37.5556 0.929989 32.5865 2.49906 28.961 5.5939L30.3893 7.26717ZM55.0508 7.27745C57.637 9.42092 59.3486 11.633 60.4387 14.6962C61.5441 17.8026 62.0353 21.8528 62.0353 27.7171L64.2353 27.7171C64.2353 21.7688 63.7432 17.4201 62.5114 13.9587C61.2642 10.454 59.2847 7.92916 56.4548 5.58362L55.0508 7.27745ZM62.0353 27.7171C62.0353 33.4107 60.4374 37.8041 58.8482 40.7685C58.053 42.2518 57.2602 43.3765 56.672 44.1246C56.3781 44.4984 56.1357 44.7776 55.9704 44.9598C55.8878 45.0509 55.8244 45.1177 55.7836 45.1599C55.7632 45.181 55.7485 45.196 55.7397 45.2048C55.7354 45.2091 55.7325 45.212 55.7312 45.2133C55.7306 45.2139 55.7303 45.2142 55.7304 45.214C55.7305 45.214 55.7307 45.2138 55.7309 45.2135C55.7311 45.2134 55.7313 45.2131 55.7314 45.2131C55.7317 45.2128 55.732 45.2125 56.5 46C57.268 46.7875 57.2683 46.7872 57.2687 46.7868C57.2689 46.7866 57.2693 46.7862 57.2697 46.7859C57.2703 46.7852 57.2711 46.7845 57.272 46.7836C57.2737 46.7819 57.2759 46.7798 57.2784 46.7773C57.2835 46.7722 57.2902 46.7656 57.2983 46.7574C57.3147 46.741 57.3372 46.7181 57.3654 46.689C57.4218 46.6306 57.501 46.5469 57.5998 46.438C57.7974 46.2202 58.0734 45.9016 58.4015 45.4843C59.0574 44.6501 59.9235 43.4189 60.7871 41.808C62.5155 38.5842 64.2353 33.8361 64.2353 27.7171L62.0353 27.7171ZM56.5 46C55.4094 46.1433 55.4094 46.1435 55.4094 46.1438C55.4095 46.1439 55.4095 46.1443 55.4095 46.1445C55.4096 46.1451 55.4097 46.1458 55.4098 46.1467C55.4101 46.1485 55.4104 46.1508 55.4108 46.1537C55.4115 46.1595 55.4127 46.1677 55.4141 46.1782C55.417 46.1991 55.4212 46.2292 55.4268 46.268C55.438 46.3457 55.4548 46.4584 55.4777 46.603C55.5236 46.8922 55.594 47.3092 55.6932 47.8285C55.8917 48.8664 56.2061 50.3169 56.6718 51.9755C57.598 55.2737 59.1445 59.4765 61.6234 62.8825L63.4022 61.5879C61.1465 58.4886 59.6865 54.5738 58.7899 51.3807C58.3443 49.7936 58.0433 48.4052 57.8541 47.4154C57.7596 46.9209 57.6931 46.5269 57.6506 46.2585C57.6293 46.1244 57.614 46.0217 57.6042 45.9537C57.5993 45.9197 57.5958 45.8943 57.5935 45.878C57.5924 45.8699 57.5916 45.864 57.5911 45.8604C57.5909 45.8587 57.5907 45.8575 57.5906 45.8568C57.5906 45.8565 57.5906 45.8564 57.5906 45.8563C57.5906 45.8563 57.5906 45.8564 57.5906 45.8564C57.5906 45.8566 57.5906 45.8567 56.5 46ZM61.6234 62.8825C62.9704 64.7332 64.9824 66.0072 67.1367 66.8933C69.298 67.7823 71.6818 68.3136 73.874 68.6317C76.0713 68.9505 78.1107 69.0599 79.5986 69.0901C80.3437 69.1053 80.9535 69.1006 81.379 69.092C81.5919 69.0877 81.7588 69.0825 81.8738 69.0782C81.9314 69.0761 81.9759 69.0742 82.0067 69.0728C82.0221 69.0721 82.0341 69.0716 82.0426 69.0712C82.0468 69.071 82.0501 69.0708 82.0526 69.0707C82.0538 69.0706 82.0548 69.0705 82.0556 69.0705C82.056 69.0705 82.0564 69.0705 82.0566 69.0705C82.0569 69.0704 82.0572 69.0704 82 67.9719C81.9428 66.8734 81.943 66.8734 81.9431 66.8734C81.9431 66.8734 81.9431 66.8734 81.9431 66.8734C81.943 66.8734 81.9426 66.8734 81.942 66.8734C81.9409 66.8735 81.9389 66.8736 81.936 66.8737C81.9303 66.874 81.921 66.8745 81.9083 66.875C81.883 66.8762 81.8442 66.8778 81.7925 66.8797C81.6891 66.8835 81.5345 66.8884 81.3347 66.8925C80.935 66.9005 80.3552 66.9051 79.6433 66.8906C78.2172 66.8616 76.2726 66.7567 74.1899 66.4545C72.1021 66.1515 69.9101 65.6552 67.9736 64.8587C66.0302 64.0593 64.4226 62.9899 63.4022 61.5879L61.6234 62.8825ZM19.7441 61.4014C16.289 64.3745 11.8938 65.7578 8.29169 66.3863C6.50044 66.6989 4.93042 66.8204 3.81082 66.8638C3.25161 66.8854 2.80641 66.8875 2.50409 66.8843C2.35298 66.8827 2.2377 66.8798 2.16189 66.8774C2.12399 66.8762 2.09596 66.8751 2.07826 66.8743C2.06941 66.874 2.06315 66.8737 2.05952 66.8735C2.05771 66.8734 2.05656 66.8734 2.05607 66.8733C2.05583 66.8733 2.05576 66.8733 2.05585 66.8733C2.0559 66.8733 2.05609 66.8733 2.05611 66.8734C2.05635 66.8734 2.05663 66.8734 2 67.9719C1.94337 69.0705 1.94373 69.0705 1.94414 69.0705C1.94433 69.0705 1.94478 69.0705 1.94517 69.0705C1.94594 69.0706 1.94688 69.0706 1.94799 69.0707C1.9502 69.0708 1.9531 69.0709 1.95666 69.0711C1.96379 69.0714 1.9736 69.0719 1.98603 69.0724C2.01089 69.0734 2.04625 69.0748 2.09164 69.0763C2.18242 69.0792 2.31339 69.0824 2.48088 69.0842C2.81579 69.0877 3.29727 69.0853 3.89591 69.0621C5.09201 69.0158 6.76238 68.8864 8.66985 68.5536C12.4651 67.8914 17.3007 66.4063 21.179 63.069L19.7441 61.4014Z" fill="#E31E24"/>
<path d="M38.5938 62.0002L47.4599 62.0002C48.3943 61.9894 49.2946 62.3574 49.9629 63.0233C50.6312 63.6892 51.0126 64.5985 51.0232 65.5511C51.0339 66.5037 50.6729 67.4216 50.0197 68.1029C49.3665 68.7842 48.4746 69.173 47.5402 69.1839L47.5402 69.8161C48.4746 69.8276 49.3663 70.217 50.019 70.8987C50.6718 71.5804 51.0322 72.4986 51.021 73.4512C51.0097 74.4038 50.6277 75.3128 49.959 75.9783C49.2904 76.6438 48.3898 77.0112 47.4554 76.9997L38.5893 76.9997C37.6549 77.0112 36.7543 76.6438 36.0856 75.9783C35.4169 75.3128 35.0349 74.4038 35.0237 73.4512C35.0124 72.4986 35.3728 71.5804 36.0256 70.8987C36.6784 70.217 37.57 69.8276 38.5044 69.8161L38.5044 69.1839C37.6008 69.1631 36.7401 68.7869 36.1024 68.1338C35.6082 67.6324 35.2713 66.9926 35.1343 66.2956C34.9972 65.5987 35.0663 64.8759 35.3327 64.219C35.599 63.5621 36.0508 63.0006 36.6305 62.6058C37.2103 62.2109 37.892 62.0005 38.5893 62.0012L38.5938 62.0002ZM47.4599 67.3443C47.9156 67.3443 48.3526 67.1597 48.6749 66.8312C48.9971 66.5027 49.1781 66.0571 49.1781 65.5925C49.1781 65.1279 48.9971 64.6824 48.6749 64.3538C48.3526 64.0253 47.9156 63.8408 47.4599 63.8408L38.5938 63.8408C38.1381 63.8408 37.701 64.0253 37.3788 64.3538C37.0566 64.6824 36.8755 65.1279 36.8755 65.5925C36.8755 66.0571 37.0566 66.5027 37.3788 66.8312C37.701 67.1597 38.1381 67.3443 38.5938 67.3443L39.4116 67.3443C39.651 67.3443 39.8806 67.4412 40.0499 67.6138C40.2192 67.7864 40.3143 68.0205 40.3143 68.2645L40.3143 70.7355C40.3143 70.9795 40.2192 71.2136 40.0499 71.3862C39.8806 71.5588 39.651 71.6557 39.4116 71.6557L38.5938 71.6557C38.1381 71.6557 37.701 71.8403 37.3788 72.1688C37.0566 72.4973 36.8755 72.9429 36.8755 73.4075C36.8755 73.872 37.0566 74.3176 37.3788 74.6461C37.701 74.9746 38.1381 75.1592 38.5938 75.1592L47.4599 75.1592C47.9156 75.1592 48.3526 74.9746 48.6749 74.6461C48.9971 74.3176 49.1781 73.872 49.1781 73.4075C49.1781 72.9429 48.9971 72.4973 48.6749 72.1688C48.3526 71.8403 47.9156 71.6557 47.4599 71.6557L46.6421 71.6557C46.4027 71.6557 46.1731 71.5588 46.0038 71.3862C45.8345 71.2136 45.7394 70.9795 45.7394 70.7355L45.7394 68.2645C45.7394 68.0205 45.8345 67.7864 46.0038 67.6138C46.1731 67.4412 46.4027 67.3443 46.6421 67.3443L47.4599 67.3443Z" fill="#E31E24"/>
<path d="M38.5938 42.0002L47.4599 42.0002C48.3943 41.9894 49.2946 42.3574 49.9629 43.0233C50.6312 43.6892 51.0126 44.5985 51.0232 45.5511C51.0339 46.5037 50.6729 47.4216 50.0197 48.1029C49.3665 48.7842 48.4746 49.173 47.5402 49.1839L47.5402 49.8161C48.0029 49.8218 48.4599 49.9203 48.8852 50.1061C49.3106 50.2918 49.6958 50.5612 50.019 50.8987C50.3423 51.2363 50.5971 51.6354 50.769 52.0733C50.9409 52.5113 51.0265 52.9795 51.021 53.4512C51.0154 53.9229 50.9187 54.3888 50.7365 54.8224C50.5543 55.256 50.2901 55.6488 49.959 55.9783C49.628 56.3078 49.2364 56.5676 48.8069 56.7429C48.3773 56.9181 47.918 57.0054 47.4554 56.9997L38.5893 56.9997C38.1266 57.0054 37.6674 56.9181 37.2378 56.7429C36.8082 56.5676 36.4167 56.3078 36.0856 55.9783C35.7545 55.6488 35.4903 55.256 35.3081 54.8224C35.1259 54.3888 35.0293 53.9229 35.0237 53.4512C35.0181 52.9795 35.1037 52.5113 35.2756 52.0733C35.4476 51.6354 35.7024 51.2363 36.0256 50.8987C36.3488 50.5612 36.7341 50.2918 37.1594 50.1061C37.5847 49.9203 38.0418 49.8218 38.5044 49.8161L38.5044 49.1839C37.6006 49.1633 36.7397 48.7866 36.1024 48.1329C35.6086 47.6314 35.2719 46.9917 35.135 46.2949C34.9982 45.5981 35.0673 44.8755 35.3336 44.2188C35.6 43.5621 36.0516 43.0008 36.6311 42.606C37.2107 42.2112 37.8922 42.0007 38.5893 42.0012L38.5938 42.0002ZM47.4599 47.3443C47.9156 47.3443 48.3526 47.1597 48.6749 46.8312C48.9971 46.5027 49.1781 46.0571 49.1781 45.5925C49.1781 45.1279 48.9971 44.6824 48.6749 44.3538C48.3526 44.0253 47.9156 43.8408 47.4599 43.8408L38.5938 43.8408C38.1381 43.8408 37.701 44.0253 37.3788 44.3538C37.0566 44.6824 36.8755 45.1279 36.8755 45.5925C36.8755 46.0571 37.0566 46.5027 37.3788 46.8312C37.701 47.1597 38.1381 47.3442 38.5938 47.3442L39.4116 47.3442C39.651 47.3442 39.8806 47.4412 40.0499 47.6138C40.2192 47.7864 40.3143 48.0204 40.3143 48.2645L40.3143 50.7355C40.3143 50.9795 40.2192 51.2136 40.0499 51.3862C39.8806 51.5588 39.651 51.6557 39.4116 51.6557L38.5938 51.6557C38.1381 51.6557 37.701 51.8403 37.3788 52.1688C37.0566 52.4973 36.8755 52.9429 36.8755 53.4075C36.8755 53.872 37.0566 54.3176 37.3788 54.6461C37.701 54.9746 38.1381 55.1592 38.5938 55.1592L47.4599 55.1592C47.9156 55.1592 48.3526 54.9746 48.6749 54.6461C48.9971 54.3176 49.1781 53.872 49.1781 53.4075C49.1781 52.9429 48.9971 52.4973 48.6749 52.1688C48.3526 51.8403 47.9156 51.6557 47.4599 51.6557L46.6421 51.6557C46.4027 51.6557 46.1731 51.5588 46.0038 51.3862C45.8345 51.2136 45.7394 50.9795 45.7394 50.7355L45.7394 48.2645C45.7394 48.0205 45.8345 47.7864 46.0038 47.6138C46.1731 47.4412 46.4027 47.3443 46.6421 47.3443L47.4599 47.3443Z" fill="#E31E24"/>
<path d="M40.0182 76.0018C40.282 76.0018 40.5351 76.094 40.7216 76.2581C40.9082 76.4222 41.013 76.6448 41.013 76.8769L41.013 80.2497L45.0339 80.2497L45.0339 76.8751C45.0339 76.643 45.1387 76.4204 45.3252 76.2563C45.5118 76.0922 45.7648 76 46.0287 76C46.2925 76 46.5455 76.0922 46.7321 76.2563C46.9186 76.4204 47.0234 76.643 47.0234 76.8751L47.0234 81.1249C47.0234 81.357 46.9186 81.5796 46.7321 81.7437C46.5455 81.9078 46.2925 82 46.0287 82L40.0182 82C39.7544 82 39.5014 81.9078 39.3148 81.7437C39.1282 81.5796 39.0234 81.357 39.0234 81.1249L39.0234 76.8751C39.024 76.6433 39.129 76.4212 39.3155 76.2575C39.502 76.0937 39.7547 76.0018 40.0182 76.0018Z" fill="#E31E24"/>
<path d="M40.0182 37L46.0287 37C46.2925 37 46.5455 37.0893 46.7321 37.2483C46.9186 37.4073 47.0234 37.623 47.0234 37.8478L47.0234 42.1522C47.0234 42.377 46.9186 42.5927 46.7321 42.7517C46.5455 42.9107 46.2925 43 46.0287 43C45.7648 43 45.5118 42.9107 45.3252 42.7517C45.1387 42.5927 45.0339 42.377 45.0339 42.1522L45.0339 38.6956L41.013 38.6956L41.013 42.1522C41.013 42.377 40.9082 42.5927 40.7216 42.7517C40.5351 42.9107 40.282 43 40.0182 43C39.7544 43 39.5014 42.9107 39.3148 42.7517C39.1282 42.5927 39.0234 42.377 39.0234 42.1522L39.0234 37.8478C39.0234 37.623 39.1282 37.4073 39.3148 37.2483C39.5014 37.0893 39.7544 37 40.0182 37Z" fill="#E31E24"/>
<path d="M40.0235 56C40.2887 56 40.543 56.1074 40.7306 56.2986C40.9181 56.4898 41.0235 56.7491 41.0235 57.0195L41.0235 61.9805C41.0235 62.2509 40.9181 62.5102 40.7306 62.7014C40.543 62.8926 40.2887 63 40.0235 63C39.7583 63 39.5039 62.8926 39.3164 62.7014C39.1288 62.5102 39.0235 62.2509 39.0235 61.9805L39.0235 57.0195C39.0235 56.7491 39.1288 56.4898 39.3164 56.2986C39.5039 56.1074 39.7583 56 40.0235 56Z" fill="#E31E24"/>
<path d="M46.0235 56C46.2887 56 46.543 56.1074 46.7306 56.2986C46.9181 56.4898 47.0235 56.7491 47.0235 57.0195L47.0235 61.9805C47.0235 62.2509 46.9181 62.5102 46.7306 62.7014C46.543 62.8926 46.2887 63 46.0235 63C45.7583 63 45.5039 62.8926 45.3164 62.7014C45.1288 62.5102 45.0235 62.2509 45.0235 61.9805L45.0235 57.0195C45.0235 56.7491 45.1288 56.4898 45.3164 56.2986C45.5039 56.1074 45.7583 56 46.0235 56Z" fill="#E31E24"/>
</svg>
