<svg width="80" height="80" viewBox="0 0 80 80" fill="none" xmlns="http://www.w3.org/2000/svg">
<path d="M27.4312 0C26.7486 0 26.1953 0.527985 26.1953 1.17924V2.8481C26.1953 5.85484 24.8868 8.76898 22.6052 10.8432C22.2847 11.1347 21.9296 11.4198 21.5498 11.6908C21.0032 12.0808 20.8911 12.8197 21.3 13.3414C21.5427 13.6512 21.9144 13.8147 22.2908 13.8147C22.5482 13.8147 22.8079 13.7383 23.0298 13.5798C23.4881 13.2529 23.919 12.9067 24.3104 12.5509C27.0792 10.0338 28.667 6.49729 28.667 2.84841V1.17924C28.667 0.527985 28.1137 0 27.4312 0V0Z" fill="#E31E24"/>
<path d="M18.6849 14.4838C18.4158 13.8854 17.6891 13.6085 17.0618 13.8654L12.3795 15.7834C7.21043 17.9006 3.27873 21.8354 1.30859 26.8629C-0.628093 31.8048 -0.408109 37.1367 1.92207 41.9081V59.7841C1.92207 60.4354 2.47541 60.9633 3.15794 60.9633C3.84047 60.9633 4.39381 60.4354 4.39381 59.7841V41.6427C4.39381 41.4652 4.35179 41.29 4.27088 41.1301C2.12179 36.8814 1.89208 32.1078 3.62378 27.689C5.35547 23.2701 8.81112 19.8116 13.3545 17.9505L18.0368 16.0326C18.6639 15.7757 18.9541 15.0823 18.6849 14.4838Z" fill="#E31E24"/>
<path d="M20.0819 55.8984C19.0062 53.9435 18.4377 51.7432 18.4377 49.535V33.0386C18.4377 32.3873 17.8843 31.8594 17.2018 31.8594C16.5193 31.8594 15.9659 32.3873 15.9659 33.0386V49.5349V52.3394C15.9659 53.4718 15.6585 54.5921 15.0766 55.5792L14.4626 56.621C14.1281 57.1886 14.3392 57.9076 14.9341 58.2268C15.1257 58.3295 15.3335 58.3784 15.5387 58.3784C15.9707 58.3784 16.3901 58.1619 16.617 57.777L17.231 56.7353C17.3277 56.5713 17.4185 56.4045 17.504 56.2355C17.6271 56.4915 17.7561 56.7451 17.8934 56.9946L18.6437 58.3583C18.6712 58.4081 18.6837 58.4643 18.6799 58.5205L18.0867 67.4609C18.0435 68.1109 18.5608 68.6711 19.242 68.7122C19.2685 68.7137 19.2949 68.7147 19.3212 68.7147C19.968 68.7147 20.512 68.2345 20.5535 67.6098L21.1467 58.6694C21.179 58.1814 21.0702 57.6946 20.8321 57.2619L20.0819 55.8984Z" fill="#E31E24"/>
<path d="M19.0643 71.3834C18.3858 71.3428 17.796 71.8357 17.753 72.4857L17.3376 78.7454C17.2944 79.3954 17.8117 79.9556 18.4929 79.9967C18.5194 79.9982 18.5458 79.9992 18.5721 79.9992C19.2189 79.9992 19.7628 79.519 19.8044 78.8943L20.2198 72.6346C20.2628 71.9848 19.7455 71.4246 19.0643 71.3834Z" fill="#E31E24"/>
<path d="M77.3475 27.972C77.5024 27.972 77.6599 27.944 77.8124 27.8849C78.4446 27.6398 78.7491 26.9519 78.4921 26.3486C76.4572 21.5703 72.6005 17.8181 67.6321 15.7831L60.8268 12.9955C59.5583 12.4759 58.4084 11.7517 57.4089 10.843C55.1275 8.76898 53.8189 5.85485 53.8189 2.8481V1.17924C53.8189 0.527985 53.2656 0 52.5831 0C51.9005 0 51.3472 0.527985 51.3472 1.17924V2.8481C51.3472 6.49714 52.9352 10.0334 55.7039 12.5506C56.9168 13.6532 58.3124 14.5322 59.8518 15.1627L66.6571 17.9502C71.0238 19.7389 74.4137 23.037 76.2023 27.2365C76.3972 27.6945 76.8596 27.972 77.3475 27.972Z" fill="#E31E24"/>
<path d="M79.8919 31.6966C79.8216 31.0488 79.2139 30.5777 78.5351 30.6453C77.8562 30.7125 77.363 31.2922 77.4334 31.94C77.7755 35.0868 77.1902 38.2646 75.7409 41.13C75.66 41.2899 75.618 41.4651 75.618 41.6426V59.784C75.618 60.4353 76.1713 60.9632 76.8539 60.9632C77.5364 60.9632 78.0897 60.4353 78.0897 59.784V41.9078C79.6486 38.713 80.2716 35.1887 79.8919 31.6966Z" fill="#E31E24"/>
<path d="M64.9384 55.5794C64.3566 54.5923 64.0491 53.472 64.0491 52.3396V49.5351V33.0386C64.0491 32.3873 63.4958 31.8594 62.8133 31.8594C62.1307 31.8594 61.5774 32.3873 61.5774 33.0386V49.5349C61.5774 51.7429 61.0089 53.9435 59.9332 55.8982L59.1831 57.2617C58.9448 57.6946 58.8361 58.1814 58.8684 58.6696L60.2104 78.8953C60.2517 79.5198 60.7957 80 61.4426 80C61.4688 80 61.4953 79.9992 61.5219 79.9975C62.2031 79.9563 62.7203 79.3961 62.6771 78.7461L61.3352 58.5205C61.3315 58.4643 61.3441 58.4081 61.3716 58.358L62.1218 56.9945C62.2591 56.7449 62.3881 56.4913 62.5112 56.2353C62.5966 56.4045 62.6875 56.5712 62.7843 56.7352L63.3982 57.777C63.625 58.1619 64.0445 58.3784 64.4766 58.3784C64.6817 58.3784 64.8897 58.3295 65.0812 58.2268C65.676 57.9077 65.8871 57.1886 65.5526 56.621L64.9384 55.5794Z" fill="#E31E24"/>
<path d="M47.2737 20.1769L46.5767 17.4326C46.3704 16.6196 45.6139 16.0516 44.7371 16.0516H35.1094C34.2326 16.0516 33.476 16.6196 33.2697 17.4323L32.5727 20.1769C30.7395 20.3949 29.316 21.8909 29.316 23.6983V23.8667C29.316 25.817 30.9735 27.4044 33.0148 27.4148L32.5727 29.1557C30.7395 29.3736 29.316 30.8698 29.316 32.677V32.8453C29.316 34.7956 30.9735 36.383 33.0148 36.3935L32.5727 38.1342C30.7395 38.3522 29.316 39.8484 29.316 41.6556V41.8242C29.316 43.7745 30.9735 45.3619 33.0148 45.3722L32.5727 47.1131C30.7395 47.331 29.316 48.8271 29.316 50.6345V50.8029C29.316 52.7532 30.9735 54.3406 33.0148 54.3511L32.5727 56.0919C30.7395 56.3098 29.316 57.806 29.316 59.6132V59.7815C29.316 61.7318 30.9735 63.3192 33.0148 63.3297L32.5727 65.0706C30.7395 65.2885 29.316 66.7846 29.316 68.5919V68.7603C29.316 70.7171 30.9844 72.3089 33.0351 72.3089H34.0047L37.1624 74.5168C37.6332 74.846 38.1508 75.0781 38.6874 75.2196V78.8208C38.6874 79.4721 39.2408 80.0001 39.9233 80.0001C40.6058 80.0001 41.1592 79.4721 41.1592 78.8208V75.2194C41.6959 75.0779 42.2136 74.846 42.6842 74.5168L45.842 72.3089H46.8115C48.8622 72.3089 50.5307 70.7169 50.5307 68.7603V68.5919C50.5307 66.7846 49.1071 65.2885 47.2739 65.0706L46.8318 63.3297C48.8731 63.3192 50.5307 61.7318 50.5307 59.7815V59.6132C50.5307 57.8058 49.1071 56.3098 47.2739 56.0919L46.8318 54.3511C48.8731 54.3406 50.5307 52.7532 50.5307 50.8029V50.6345C50.5307 48.8271 49.1071 47.331 47.2739 47.1131L46.8318 45.3722C48.8731 45.3619 50.5307 43.7745 50.5307 41.8242V41.6558C50.5307 39.8484 49.1071 38.3523 47.2739 38.1344L46.8318 36.3937C48.8731 36.3831 50.5307 34.7957 50.5307 32.8454V32.6772C50.5307 30.8698 49.1071 29.3737 47.2739 29.1558L46.8318 27.4149C48.8731 27.4046 50.5307 25.8172 50.5307 23.8668V23.6985C50.5305 21.8909 49.1071 20.3949 47.2737 20.1769ZM48.0588 68.5921V68.7605C48.0588 69.4168 47.4992 69.9506 46.8114 69.9506H45.6525C45.2473 69.9506 44.8603 70.0713 44.5336 70.2998L41.2231 72.6146C41.2022 72.6292 41.1803 72.6419 41.159 72.6558V70.0482C41.159 69.397 40.6057 68.869 39.9231 68.869C39.2406 68.869 38.6873 69.397 38.6873 70.0482V72.6556C38.666 72.6418 38.6441 72.629 38.6232 72.6144L35.3127 70.2998C34.9859 70.0712 34.599 69.9504 34.1938 69.9504H33.0349C32.3471 69.9504 31.7875 69.4165 31.7875 68.7603V68.5919C31.7875 67.9357 32.3471 67.4019 33.0349 67.4019C33.9117 67.4019 34.6681 66.8341 34.8745 66.0212L35.3237 64.2527L37.1622 65.538C37.9881 66.1155 38.9554 66.4042 39.9231 66.4041C40.8907 66.4041 41.8585 66.1154 42.6841 65.538L44.5225 64.2525L44.9717 66.0209C45.178 66.8339 45.9346 67.4017 46.8114 67.4017C47.4992 67.4019 48.0588 67.9358 48.0588 68.5921ZM48.0588 59.6134V59.7816C48.0588 60.4379 47.4992 60.9719 46.8114 60.9719H45.6525C45.2473 60.9719 44.8603 61.0926 44.5336 61.3211L41.2231 63.6358C41.2022 63.6505 41.1803 63.6632 41.159 63.677V61.0695C41.159 60.4182 40.6057 59.8903 39.9231 59.8903C39.2406 59.8903 38.6873 60.4182 38.6873 61.0695V63.6769C38.666 63.663 38.6441 63.6503 38.6232 63.6357L35.3127 61.3211C34.9859 61.0925 34.599 60.9717 34.1938 60.9717H33.0349C32.3471 60.9717 31.7875 60.4377 31.7875 59.7815V59.6132C31.7875 58.9569 32.3471 58.423 33.0349 58.423C33.9117 58.423 34.6682 57.855 34.8745 57.0423L35.3237 55.2738L37.1622 56.5593C37.9879 57.1367 38.9555 57.4252 39.9231 57.4252C40.8907 57.4252 41.8583 57.1365 42.6841 56.5593L44.5225 55.2738L44.9716 57.042C45.1779 57.8551 45.9344 58.423 46.8112 58.423C47.4992 58.4231 48.0588 58.9571 48.0588 59.6134ZM48.0588 50.6345V50.8029C48.0588 51.4592 47.4992 51.9931 46.8114 51.9931H45.6525C45.2473 51.9931 44.8603 52.1139 44.5336 52.3423L41.2231 54.6571C41.2022 54.6717 41.1803 54.6845 41.159 54.6983V52.0908C41.159 51.4395 40.6057 50.9115 39.9231 50.9115C39.2406 50.9115 38.6873 51.4395 38.6873 52.0908V54.6983C38.666 54.6845 38.6441 54.6717 38.6232 54.6571L35.3127 52.3425C34.9861 52.114 34.599 51.9933 34.1938 51.9933H33.0349C32.3471 51.9933 31.7875 51.4593 31.7875 50.803V50.6346C31.7875 49.9784 32.3471 49.4446 33.0349 49.4446C33.9117 49.4446 34.6681 48.8768 34.8745 48.0639L35.3237 46.2954L37.1622 47.5807C37.9881 48.1582 38.9554 48.4469 39.9231 48.4468C40.8907 48.4468 41.8585 48.1581 42.6841 47.5807L44.5225 46.2952L44.9717 48.0636C45.178 48.8766 45.9346 49.4444 46.8114 49.4444C47.4992 49.4444 48.0588 49.9782 48.0588 50.6345ZM48.0588 41.6558V41.8242C48.0588 42.4804 47.4992 43.0142 46.8114 43.0142H45.6525C45.2473 43.0142 44.8603 43.135 44.5336 43.3635L41.2231 45.6782C41.2022 45.6928 41.1803 45.7056 41.159 45.7194V43.1119C41.159 42.4606 40.6057 41.9326 39.9231 41.9326C39.2406 41.9326 38.6873 42.4606 38.6873 43.1119V45.7193C38.666 45.7054 38.6441 45.6927 38.6232 45.6781L35.3127 43.3635C34.9859 43.1348 34.599 43.0141 34.1938 43.0141H33.0349C32.3471 43.0141 31.7875 42.4801 31.7875 41.824V41.6556C31.7875 40.9993 32.3471 40.4654 33.0349 40.4654C33.9117 40.4654 34.6682 39.8974 34.8745 39.0847L35.3237 37.3162L37.1622 38.6015C37.9881 39.179 38.9554 39.4677 39.9231 39.4676C40.8907 39.4676 41.8585 39.1789 42.6841 38.6015L44.5225 37.316L44.9716 39.0842C45.1779 39.8973 45.9344 40.4652 46.8112 40.4652C47.4992 40.4655 48.0588 40.9995 48.0588 41.6558ZM48.0588 32.677V32.8453C48.0588 33.5016 47.4992 34.0355 46.8114 34.0355H45.6525C45.2473 34.0355 44.8603 34.1563 44.5336 34.3847L41.2231 36.6995C41.2022 36.7141 41.1803 36.7269 41.159 36.7407V34.1332C41.159 33.4819 40.6057 32.9539 39.9231 32.9539C39.2406 32.9539 38.6873 33.4819 38.6873 34.1332V36.7405C38.666 36.7267 38.6441 36.714 38.6232 36.6993L35.3127 34.3847C34.9859 34.1561 34.599 34.0354 34.1938 34.0354H33.0349C32.3471 34.0354 31.7875 33.5014 31.7875 32.8451V32.6769C31.7875 32.0206 32.3471 31.4866 33.0349 31.4866C33.9117 31.4866 34.6682 30.9187 34.8745 30.106L35.3237 28.3374L37.1622 29.623C37.9881 30.2005 38.9554 30.4891 39.9231 30.489C40.8907 30.489 41.8585 30.2003 42.6841 29.623L44.5225 28.3374L44.9717 30.1057C45.178 30.9187 45.9346 31.4866 46.8114 31.4866C47.4992 31.4868 48.0588 32.0207 48.0588 32.677ZM48.0588 23.8667C48.0588 24.523 47.4992 25.0568 46.8114 25.0568H45.6525C45.2473 25.0568 44.8603 25.1775 44.5336 25.406L41.2231 27.7208C41.2022 27.7354 41.1803 27.7481 41.159 27.762V25.1544C41.159 24.5032 40.6057 23.9752 39.9231 23.9752C39.2406 23.9752 38.6873 24.5032 38.6873 25.1544V27.762C38.666 27.7481 38.6441 27.7354 38.6232 27.7208L35.3127 25.4061C34.9859 25.1775 34.599 25.0568 34.1938 25.0568H33.0349C32.3471 25.0568 31.7875 24.5228 31.7875 23.8667V23.6983C31.7875 23.042 32.3471 22.5082 33.0349 22.5082C33.9117 22.5082 34.6681 21.9404 34.8745 21.1276L35.5647 18.4103H44.2815L44.9716 21.1274C45.1779 21.9404 45.9344 22.5082 46.8112 22.5082C47.499 22.5082 48.0586 23.0422 48.0586 23.6983V23.8667H48.0588Z" fill="#E31E24"/>
<path d="M39.9233 13.5843C40.6059 13.5843 41.1592 13.0563 41.1592 12.4051V9.54815C41.1592 8.8969 40.6059 8.36891 39.9233 8.36891C39.2408 8.36891 38.6875 8.8969 38.6875 9.54815V12.4051C38.6875 13.0563 39.2408 13.5843 39.9233 13.5843Z" fill="#E31E24"/>
<path d="M39.9233 5.21554C40.6059 5.21554 41.1592 4.68756 41.1592 4.0363V1.17924C41.1592 0.527985 40.6059 0 39.9233 0C39.2408 0 38.6875 0.527985 38.6875 1.17924V4.03614C38.6875 4.68756 39.2408 5.21554 39.9233 5.21554Z" fill="#E31E24"/>
</svg>
