<svg width="76" height="80" viewBox="0 0 76 80" fill="none" xmlns="http://www.w3.org/2000/svg">
<path d="M43.6176 40.5237H32.3829C31.1989 40.5372 30.058 40.0802 29.2113 39.2532C28.3645 38.4262 27.8812 37.297 27.8677 36.114C27.8542 34.931 28.3116 33.791 29.1393 32.945C29.967 32.0989 31.0971 31.6161 32.2811 31.6026V30.8174C31.0971 30.8032 29.9673 30.3196 29.1401 29.473C28.313 28.6264 27.8563 27.4862 27.8706 26.3032C27.8848 25.1201 28.3688 23.9912 29.2161 23.1648C30.0634 22.3384 31.2046 21.8821 32.3887 21.8963H43.6233C44.8073 21.8821 45.9485 22.3384 46.7958 23.1648C47.6431 23.9912 48.1271 25.1201 48.1414 26.3032C48.1557 27.4862 47.699 28.6264 46.8718 29.473C46.0447 30.3196 44.9148 30.8032 43.7308 30.8174V31.6026C44.8758 31.6283 45.9665 32.0956 46.7745 32.9066C47.4007 33.5293 47.8276 34.3239 48.0013 35.1894C48.1749 36.0549 48.0874 36.9525 47.7499 37.7683C47.4124 38.5841 46.84 39.2813 46.1053 39.7717C45.3706 40.262 44.5068 40.5233 43.6233 40.5225L43.6176 40.5237ZM32.3829 33.8871C31.8055 33.8871 31.2517 34.1163 30.8434 34.5243C30.4351 34.9323 30.2057 35.4856 30.2057 36.0626C30.2057 36.6395 30.4351 37.1928 30.8434 37.6008C31.2517 38.0088 31.8055 38.238 32.3829 38.238H43.6176C44.195 38.238 44.7488 38.0088 45.1571 37.6008C45.5654 37.1928 45.7948 36.6395 45.7948 36.0626C45.7948 35.4856 45.5654 34.9323 45.1571 34.5243C44.7488 34.1163 44.195 33.8871 43.6176 33.8871H42.5813C42.2779 33.8871 41.987 33.7667 41.7725 33.5524C41.558 33.3381 41.4374 33.0474 41.4374 32.7443V29.6757C41.4374 29.3726 41.558 29.0819 41.7725 28.8676C41.987 28.6533 42.2779 28.5329 42.5813 28.5329H43.6176C44.195 28.5329 44.7488 28.3037 45.1571 27.8957C45.5654 27.4877 45.7948 26.9344 45.7948 26.3574C45.7948 25.7805 45.5654 25.2272 45.1571 24.8192C44.7488 24.4112 44.195 24.182 43.6176 24.182H32.3829C31.8055 24.182 31.2517 24.4112 30.8434 24.8192C30.4351 25.2272 30.2057 25.7805 30.2057 26.3574C30.2057 26.9344 30.4351 27.4877 30.8434 27.8957C31.2517 28.3037 31.8055 28.5329 32.3829 28.5329H33.4192C33.7226 28.5329 34.0135 28.6533 34.228 28.8676C34.4426 29.0819 34.5631 29.3726 34.5631 29.6757V32.7443C34.5631 33.0474 34.4426 33.3381 34.228 33.5524C34.0135 33.7667 33.7226 33.8871 33.4192 33.8871H32.3829Z" fill="#E31E24"/>
<path d="M43.6166 18.6288H32.3819C31.1988 18.6431 30.0585 18.1871 29.2118 17.3613C28.3652 16.5355 27.8815 15.4075 27.8673 14.2254C27.853 13.0433 28.3093 11.904 29.1358 11.058C29.9623 10.2121 31.0913 9.72882 32.2744 9.71457V8.92143C31.0904 8.90719 29.9605 8.42357 29.1334 7.57699C28.3062 6.7304 27.8496 5.59018 27.8638 4.40716C27.8781 3.22415 28.3621 2.09525 29.2094 1.26881C30.0567 0.442365 31.1979 -0.013922 32.3819 0.000323829H43.6166C44.8006 -0.013922 45.9418 0.442365 46.7891 1.26881C47.6364 2.09525 48.1204 3.22415 48.1347 4.40716C48.1489 5.59018 47.6922 6.7304 46.8651 7.57699C46.038 8.42357 44.9081 8.90719 43.7241 8.92143V9.70657C44.8691 9.73233 45.9598 10.1996 46.7678 11.0106C47.3947 11.6332 47.8224 12.4279 47.9965 13.2939C48.1706 14.1598 48.0833 15.0579 47.7457 15.8741C47.408 16.6904 46.8353 17.388 46.1001 17.8785C45.365 18.3689 44.5005 18.6301 43.6166 18.6288ZM32.3819 11.9934C31.8046 11.9934 31.251 12.2226 30.8428 12.6304C30.4346 13.0383 30.2052 13.5915 30.2052 14.1683C30.2052 14.7451 30.4346 15.2983 30.8428 15.7061C31.251 16.114 31.8046 16.3431 32.3819 16.3431H43.6166C44.1939 16.3431 44.7475 16.114 45.1557 15.7061C45.5639 15.2983 45.7933 14.7451 45.7933 14.1683C45.7933 13.5915 45.5639 13.0383 45.1557 12.6304C44.7475 12.2226 44.1939 11.9934 43.6166 11.9934H42.5803C42.2769 11.9934 41.986 11.873 41.7715 11.6587C41.5569 11.4444 41.4364 11.1537 41.4364 10.8506V7.77972C41.4364 7.47662 41.5569 7.18593 41.7715 6.9716C41.986 6.75728 42.2769 6.63687 42.5803 6.63687H43.6166C44.0477 6.63778 44.4693 6.51056 44.8279 6.27138C45.1864 6.0322 45.4657 5.69187 45.6301 5.29368C45.7946 4.89549 45.8368 4.45743 45.7514 4.03521C45.6659 3.613 45.4568 3.22571 45.1504 2.9226C44.9495 2.72049 44.7105 2.56017 44.4473 2.45091C44.184 2.34164 43.9016 2.28561 43.6166 2.28603H32.3819C31.8045 2.28603 31.2507 2.51522 30.8424 2.9232C30.434 3.33117 30.2047 3.88449 30.2047 4.46145C30.2047 5.03841 30.434 5.59173 30.8424 5.9997C31.2507 6.40768 31.8045 6.63687 32.3819 6.63687H33.4182C33.7216 6.63687 34.0125 6.75728 34.227 6.9716C34.4415 7.18593 34.5621 7.47662 34.5621 7.77972V10.8483C34.5621 11.1514 34.4415 11.4421 34.227 11.6564C34.0125 11.8707 33.7216 11.9911 33.4182 11.9911L32.3819 11.9934Z" fill="#E31E24"/>
<path d="M43.6176 62.4197H32.3829C31.1989 62.4332 30.058 61.9761 29.2113 61.1492C28.3645 60.3222 27.8812 59.193 27.8677 58.01C27.8542 56.827 28.3116 55.687 29.1393 54.841C29.967 53.9949 31.0971 53.5121 32.2811 53.4986V52.7134C31.6949 52.7064 31.1157 52.584 30.5768 52.3533C30.0379 52.1226 29.5497 51.7882 29.1401 51.369C28.7306 50.9498 28.4076 50.4541 28.1898 49.9102C27.972 49.3663 27.8635 48.7849 27.8705 48.1992C27.8776 47.6134 28.0001 47.0347 28.231 46.4963C28.4618 45.9578 28.7966 45.47 29.2161 45.0608C29.6357 44.6516 30.1318 44.3289 30.6761 44.1113C31.2205 43.8937 31.8024 43.7853 32.3887 43.7923H43.6233C44.2096 43.7853 44.7915 43.8937 45.3358 44.1113C45.8802 44.3289 46.3763 44.6516 46.7958 45.0608C47.2153 45.47 47.5501 45.9578 47.781 46.4963C48.0119 47.0347 48.1343 47.6134 48.1414 48.1992C48.1485 48.7849 48.04 49.3663 47.8221 49.9102C47.6043 50.4541 47.2814 50.9498 46.8718 51.369C46.4623 51.7882 45.9741 52.1226 45.4351 52.3533C44.8962 52.584 44.3171 52.7064 43.7308 52.7134V53.4986C44.8761 53.5242 45.9669 53.9919 46.7745 54.8037C47.4003 55.4265 47.8269 56.221 48.0003 57.0863C48.1737 57.9516 48.0862 58.8489 47.7487 59.6645C47.4112 60.48 46.8389 61.1771 46.1045 61.6674C45.3701 62.1577 44.5066 62.4191 43.6233 62.4185L43.6176 62.4197ZM32.3829 55.7831C31.8055 55.7831 31.2517 56.0123 30.8434 56.4203C30.4351 56.8283 30.2057 57.3816 30.2057 57.9585C30.2057 58.5355 30.4351 59.0888 30.8434 59.4968C31.2517 59.9048 31.8055 60.134 32.3829 60.134H43.6176C44.195 60.134 44.7488 59.9048 45.1571 59.4968C45.5654 59.0888 45.7948 58.5355 45.7948 57.9585C45.7948 57.3816 45.5654 56.8283 45.1571 56.4203C44.7488 56.0123 44.195 55.7831 43.6176 55.7831H42.5813C42.2779 55.7831 41.987 55.6627 41.7725 55.4484C41.558 55.2341 41.4374 54.9434 41.4374 54.6403V51.5717C41.4374 51.2686 41.558 50.9779 41.7725 50.7636C41.987 50.5493 42.2779 50.4289 42.5813 50.4289H43.6176C44.195 50.4289 44.7488 50.1997 45.1571 49.7917C45.5654 49.3837 45.7948 48.8304 45.7948 48.2534C45.7948 47.6765 45.5654 47.1232 45.1571 46.7152C44.7488 46.3072 44.195 46.078 43.6176 46.078H32.3829C31.8055 46.078 31.2517 46.3072 30.8434 46.7152C30.4351 47.1232 30.2057 47.6765 30.2057 48.2534C30.2057 48.8304 30.4351 49.3837 30.8434 49.7917C31.2517 50.1997 31.8055 50.4289 32.3829 50.4289H33.4192C33.7226 50.4289 34.0135 50.5493 34.228 50.7636C34.4426 50.9779 34.5631 51.2686 34.5631 51.5717V54.6403C34.5631 54.9434 34.4426 55.2341 34.228 55.4484C34.0135 55.6627 33.7226 55.7831 33.4192 55.7831H32.3829Z" fill="#E31E24"/>
<path d="M41.4562 24.1764C41.1528 24.1764 40.8619 24.056 40.6474 23.8416C40.4329 23.6273 40.3124 23.3366 40.3124 23.0335V18.629H35.689V23.0358C35.689 23.3389 35.5685 23.6296 35.354 23.8439C35.1395 24.0583 34.8486 24.1787 34.5452 24.1787C34.2419 24.1787 33.9509 24.0583 33.7364 23.8439C33.5219 23.6296 33.4014 23.3389 33.4014 23.0358V17.4861C33.4014 17.183 33.5219 16.8923 33.7364 16.678C33.9509 16.4637 34.2419 16.3433 34.5452 16.3433H41.4562C41.7596 16.3433 42.0505 16.4637 42.265 16.678C42.4795 16.8923 42.6 17.183 42.6 17.4861V23.0358C42.5994 23.3385 42.4786 23.6286 42.2642 23.8425C42.0498 24.0563 41.7592 24.1764 41.4562 24.1764Z" fill="#E31E24"/>
<path d="M41.4562 68.2218H34.5452C34.2419 68.2218 33.9509 68.1014 33.7364 67.887C33.5219 67.6727 33.4014 67.382 33.4014 67.0789V61.2766C33.4014 60.9735 33.5219 60.6828 33.7364 60.4685C33.9509 60.2542 34.2419 60.1338 34.5452 60.1338C34.8486 60.1338 35.1395 60.2542 35.354 60.4685C35.5685 60.6828 35.689 60.9735 35.689 61.2766V65.9361H40.3124V61.2766C40.3124 60.9735 40.4329 60.6828 40.6474 60.4685C40.8619 60.2542 41.1528 60.1338 41.4562 60.1338C41.7596 60.1338 42.0505 60.2542 42.265 60.4685C42.4795 60.6828 42.6 60.9735 42.6 61.2766V67.0789C42.6 67.382 42.4795 67.6727 42.265 67.887C42.0505 68.1014 41.7596 68.2218 41.4562 68.2218Z" fill="#E31E24"/>
<path d="M41.4554 46.0778C41.152 46.0778 40.8611 45.9574 40.6466 45.7431C40.4321 45.5287 40.3116 45.238 40.3116 44.9349V39.3738C40.3116 39.0707 40.4321 38.78 40.6466 38.5657C40.8611 38.3514 41.152 38.231 41.4554 38.231C41.7587 38.231 42.0497 38.3514 42.2642 38.5657C42.4787 38.78 42.5992 39.0707 42.5992 39.3738V44.9349C42.5992 45.238 42.4787 45.5287 42.2642 45.7431C42.0497 45.9574 41.7587 46.0778 41.4554 46.0778Z" fill="#E31E24"/>
<path d="M34.5452 46.0778C34.2419 46.0778 33.9509 45.9574 33.7364 45.7431C33.5219 45.5287 33.4014 45.238 33.4014 44.9349V39.3738C33.4014 39.0707 33.5219 38.78 33.7364 38.5657C33.9509 38.3514 34.2419 38.231 34.5452 38.231C34.8486 38.231 35.1395 38.3514 35.354 38.5657C35.5685 38.78 35.689 39.0707 35.689 39.3738V44.9349C35.689 45.238 35.5685 45.5287 35.354 45.7431C35.1395 45.9574 34.8486 46.0778 34.5452 46.0778Z" fill="#E31E24"/>
<path d="M45.3541 77.0172H42.0027C41.6993 77.0172 41.4084 76.8967 41.1939 76.6824C40.9794 76.4681 40.8589 76.1774 40.8589 75.8743C40.8589 75.5712 40.9794 75.2805 41.1939 75.0662C41.4084 74.8519 41.6993 74.7314 42.0027 74.7314H45.3541C45.6575 74.7314 45.9484 74.8519 46.1629 75.0662C46.3774 75.2805 46.4979 75.5712 46.4979 75.8743C46.4979 76.1774 46.3774 76.4681 46.1629 76.6824C45.9484 76.8967 45.6575 77.0172 45.3541 77.0172Z" fill="#E31E24"/>
<path d="M70.816 80H57.7421C57.5184 80.0001 57.2996 79.9346 57.1128 79.8117C56.926 79.6888 56.7793 79.5139 56.6909 79.3086C56.4095 78.6455 55.9429 78.0774 55.347 77.6721C54.7511 77.2668 54.051 77.0414 53.3304 77.0229C53.027 77.0115 52.7406 76.8802 52.5341 76.6579C52.3277 76.4355 52.2181 76.1403 52.2295 75.8372C52.2408 75.5341 52.3722 75.2479 52.5948 75.0416C52.8174 74.8353 53.1128 74.7258 53.4162 74.7372C54.4375 74.7686 55.4341 75.0581 56.313 75.5788C57.192 76.0994 57.9245 76.8341 58.4421 77.7143H69.6836C69.7414 75.4377 70.2063 73.1897 71.0562 71.0766C75.0047 61.3887 73.8437 56.2973 72.1749 53.7327C71.6388 52.9521 70.8863 52.3449 70.0098 51.9856C69.1332 51.6262 68.1707 51.5304 67.2404 51.7098C57.9652 53.2858 52.2735 67.3544 52.2174 67.4961C52.1329 67.7089 51.9862 67.8915 51.7965 68.0201C51.6069 68.1487 51.3829 68.2173 51.1537 68.2172H24.8457C24.6167 68.2174 24.3928 68.1489 24.2031 68.0205C24.0135 67.8922 23.8667 67.7099 23.782 67.4972C23.7259 67.3544 18.0183 53.2835 8.75442 51.7098C7.82414 51.5308 6.86181 51.6269 5.98534 51.9862C5.10887 52.3455 4.35634 52.9524 3.81997 53.7327C2.15113 56.2973 0.990146 61.3898 4.93863 71.0778C5.79028 73.1901 6.25669 75.4378 6.31579 77.7143H17.5527C18.0716 76.8334 18.8053 76.098 19.6853 75.5766C20.5653 75.0553 21.563 74.7649 22.5855 74.7326C22.8889 74.7234 23.1835 74.8349 23.4046 75.0427C23.6256 75.2505 23.755 75.5375 23.7643 75.8406C23.7735 76.1437 23.6619 76.4381 23.4539 76.6589C23.2459 76.8798 22.9587 77.0091 22.6553 77.0183C21.9367 77.0393 21.2392 77.2658 20.6456 77.6709C20.052 78.076 19.5871 78.6428 19.3062 79.304C19.2187 79.5098 19.0727 79.6855 18.8862 79.8092C18.6998 79.9329 18.4811 79.9993 18.2573 80H5.1834C4.88004 80 4.58911 79.8796 4.3746 79.6653C4.16009 79.451 4.03958 79.1603 4.03958 78.8572V78.3886C4.057 76.1805 3.64281 73.9902 2.82026 71.9406C-1.5011 61.3361 -0.0633158 55.5075 1.90521 52.4858C2.68414 51.3308 3.78417 50.4285 5.06982 49.8902C6.35548 49.3519 7.77064 49.201 9.14104 49.4561C18.4792 51.0436 24.2395 62.8378 25.6121 65.9315H50.3953C51.7576 62.8378 57.5225 51.0436 66.8607 49.4561C68.231 49.2004 69.6462 49.351 70.9319 49.8891C72.2177 50.4272 73.3177 51.3295 74.0965 52.4847C76.0627 55.5075 77.5005 61.3361 73.1814 71.9395C72.3582 73.9893 71.9433 76.18 71.9598 78.3886V78.8572C71.9598 79.1603 71.8393 79.451 71.6248 79.6653C71.4103 79.8796 71.1194 80 70.816 80Z" fill="#E31E24"/>
<path d="M34.0652 77.0172H30.6337C30.3303 77.0172 30.0394 76.8967 29.8249 76.6824C29.6104 76.4681 29.4899 76.1774 29.4899 75.8743C29.4899 75.5712 29.6104 75.2805 29.8249 75.0662C30.0394 74.8519 30.3303 74.7314 30.6337 74.7314H34.0652C34.3685 74.7314 34.6595 74.8519 34.874 75.0662C35.0885 75.2805 35.209 75.5712 35.209 75.8743C35.209 76.1774 35.0885 76.4681 34.874 76.6824C34.6595 76.8967 34.3685 77.0172 34.0652 77.0172Z" fill="#E31E24"/>
</svg>
