<svg width="240" height="50" viewBox="0 0 240 50" fill="none" xmlns="http://www.w3.org/2000/svg">
<path d="M32.8605 32.1C31.4872 32.1 30.2472 31.7933 29.1405 31.18C28.0472 30.5667 27.1805 29.72 26.5405 28.64C25.9138 27.56 25.6005 26.3467 25.6005 25C25.6005 23.6533 25.9138 22.44 26.5405 21.36C27.1805 20.28 28.0472 19.4333 29.1405 18.82C30.2472 18.2067 31.4872 17.9 32.8605 17.9C33.8738 17.9 34.8072 18.0667 35.6605 18.4C36.5138 18.72 37.2405 19.2 37.8405 19.84L37.2005 20.5C36.0805 19.3933 34.6472 18.84 32.9005 18.84C31.7272 18.84 30.6605 19.1067 29.7005 19.64C28.7405 20.1733 27.9872 20.9133 27.4405 21.86C26.8938 22.7933 26.6205 23.84 26.6205 25C26.6205 26.16 26.8938 27.2133 27.4405 28.16C27.9872 29.0933 28.7405 29.8267 29.7005 30.36C30.6605 30.8933 31.7272 31.16 32.9005 31.16C34.6338 31.16 36.0672 30.6 37.2005 29.48L37.8405 30.14C37.2405 30.78 36.5072 31.2667 35.6405 31.6C34.7872 31.9333 33.8605 32.1 32.8605 32.1ZM46.9039 32.1C45.5306 32.1 44.2906 31.7933 43.1839 31.18C42.0773 30.5533 41.2039 29.7 40.5639 28.62C39.9373 27.54 39.6239 26.3333 39.6239 25C39.6239 23.6667 39.9373 22.46 40.5639 21.38C41.2039 20.3 42.0773 19.4533 43.1839 18.84C44.2906 18.2133 45.5306 17.9 46.9039 17.9C48.2773 17.9 49.5173 18.2067 50.6239 18.82C51.7306 19.4333 52.5973 20.28 53.2239 21.36C53.8639 22.44 54.1839 23.6533 54.1839 25C54.1839 26.3467 53.8639 27.56 53.2239 28.64C52.5973 29.72 51.7306 30.5667 50.6239 31.18C49.5173 31.7933 48.2773 32.1 46.9039 32.1ZM46.9039 31.16C48.0773 31.16 49.1373 30.8933 50.0839 30.36C51.0306 29.8267 51.7773 29.0933 52.3239 28.16C52.8706 27.2133 53.1439 26.16 53.1439 25C53.1439 23.84 52.8706 22.7933 52.3239 21.86C51.7773 20.9133 51.0306 20.1733 50.0839 19.64C49.1373 19.1067 48.0773 18.84 46.9039 18.84C45.7306 18.84 44.6639 19.1067 43.7039 19.64C42.7573 20.1733 42.0106 20.9133 41.4639 21.86C40.9173 22.7933 40.6439 23.84 40.6439 25C40.6439 26.16 40.9173 27.2133 41.4639 28.16C42.0106 29.0933 42.7573 29.8267 43.7039 30.36C44.6639 30.8933 45.7306 31.16 46.9039 31.16ZM69.1217 18V32H68.2817L58.7417 19.84V32H57.7217V18H58.5817L68.1017 30.16V18H69.1217ZM85.4108 18V32H84.5708L75.0308 19.84V32H74.0108V18H74.8708L84.3908 30.16V18H85.4108ZM99.9599 31.08V32H90.2999V18H99.6599V18.92H91.3199V24.44H98.7799V25.34H91.3199V31.08H99.9599ZM109.521 32.1C108.147 32.1 106.907 31.7933 105.801 31.18C104.707 30.5667 103.841 29.72 103.201 28.64C102.574 27.56 102.261 26.3467 102.261 25C102.261 23.6533 102.574 22.44 103.201 21.36C103.841 20.28 104.707 19.4333 105.801 18.82C106.907 18.2067 108.147 17.9 109.521 17.9C110.534 17.9 111.467 18.0667 112.321 18.4C113.174 18.72 113.901 19.2 114.501 19.84L113.861 20.5C112.741 19.3933 111.307 18.84 109.561 18.84C108.387 18.84 107.321 19.1067 106.361 19.64C105.401 20.1733 104.647 20.9133 104.101 21.86C103.554 22.7933 103.281 23.84 103.281 25C103.281 26.16 103.554 27.2133 104.101 28.16C104.647 29.0933 105.401 29.8267 106.361 30.36C107.321 30.8933 108.387 31.16 109.561 31.16C111.294 31.16 112.727 30.6 113.861 29.48L114.501 30.14C113.901 30.78 113.167 31.2667 112.301 31.6C111.447 31.9333 110.521 32.1 109.521 32.1ZM120.421 18.92H115.381V18H126.481V18.92H121.441V32H120.421V18.92ZM152.868 18L148.128 32H147.048L142.708 19.44L138.348 32H137.268L132.508 18H133.588L137.848 30.6L142.228 18H143.208L147.568 30.62L151.868 18H152.868ZM164.038 28.06H155.918L154.138 32H153.038L159.478 18H160.498L166.938 32H165.838L164.038 28.06ZM163.658 27.2L159.978 19.12L156.318 27.2H163.658ZM169.48 18H170.5V31.08H178.56V32H169.48V18ZM181.179 18H182.199V31.08H190.259V32H181.179V18ZM202.538 31.08V32H192.878V18H202.238V18.92H193.898V24.44H201.358V25.34H193.898V31.08H202.538ZM208.937 18.92H203.897V18H214.997V18.92H209.957V32H208.937V18.92Z" fill="white"/>
<rect x="0.500488" y="0.5" width="239" height="49" stroke="white"/>
</svg>
