<svg width="25" height="25" viewBox="0 0 25 25" fill="none" xmlns="http://www.w3.org/2000/svg">
<rect x="1.08838" y="0.883286" width="22.905" height="23.2875" stroke="white"/>
<path fill-rule="evenodd" clip-rule="evenodd" d="M18.515 10.3261H15.9843C14.8066 10.3282 13.8525 11.2733 13.8504 12.4399C13.8488 13.6092 14.8039 14.5586 15.9843 14.5601H18.5171V14.7459C18.5171 16.7856 17.3001 17.9917 15.2406 17.9917H9.84175C7.78167 17.9917 6.56464 16.7856 6.56464 14.7459V10.3034C6.56464 8.26374 7.78167 7.06235 9.84175 7.06235H15.2384C17.298 7.06235 18.515 8.26374 18.515 10.3034V10.3261ZM9.39711 10.3213H12.7677H12.7698H12.7741C13.0264 10.3203 13.2304 10.1166 13.2294 9.86612C13.2283 9.61616 13.0222 9.41409 12.7698 9.41514H9.39711C9.14638 9.41619 8.94292 9.61774 8.94186 9.86665C8.94079 10.1166 9.14478 10.3203 9.39711 10.3213Z" fill="white"/>
<path opacity="0.4" d="M14.9538 12.7072C15.0787 13.2847 15.5771 13.6911 16.1461 13.6805H18.0884C18.3251 13.6805 18.5171 13.4813 18.5171 13.235V11.6979C18.5166 11.4522 18.3251 11.2525 18.0884 11.2519H16.1004C15.4532 11.2541 14.9304 11.7999 14.9314 12.4726C14.9314 12.5513 14.939 12.63 14.9538 12.7072" fill="white"/>
<ellipse cx="16.1266" cy="12.4663" rx="0.597625" ry="0.607187" fill="white"/>
</svg>
