<svg width="30" height="30" viewBox="0 0 30 30" fill="none" xmlns="http://www.w3.org/2000/svg">
<path d="M29.5 15C29.5 23.0081 23.0081 29.5 15 29.5C6.99187 29.5 0.5 23.0081 0.5 15C0.5 6.99187 6.99187 0.5 15 0.5C23.0081 0.5 29.5 6.99187 29.5 15Z" stroke="white"/>
<path d="M20.1981 9.99473C19.2421 9.53432 18.2169 9.1951 17.1449 9.00082C17.1254 8.99707 17.1059 9.00644 17.0959 9.02518C16.964 9.27131 16.818 9.59241 16.7157 9.84479C15.5628 9.66363 14.4157 9.66363 13.2865 9.84479C13.1842 9.5868 13.0328 9.27131 12.9004 9.02518C12.8903 9.00706 12.8708 8.99769 12.8513 9.00081C11.7799 9.19448 10.7547 9.53369 9.79808 9.99473C9.7898 9.99848 9.7827 10.0047 9.77799 10.0129C7.83337 13.0621 7.30066 16.0364 7.56199 18.9738C7.56317 18.9881 7.57086 19.0019 7.5815 19.0106C8.86451 19.9995 10.1073 20.5999 11.327 20.9978C11.3466 21.0041 11.3673 20.9966 11.3797 20.9797C11.6682 20.5662 11.9254 20.1301 12.1459 19.6715C12.1589 19.6447 12.1465 19.6128 12.1199 19.6022C11.712 19.4398 11.3235 19.2417 10.9498 19.0169C10.9203 18.9987 10.9179 18.9544 10.9451 18.9331C11.0237 18.8713 11.1024 18.8069 11.1775 18.742C11.1911 18.7301 11.21 18.7276 11.226 18.7351C13.6808 19.9114 16.3385 19.9114 18.7643 18.7351C18.7803 18.727 18.7992 18.7295 18.8134 18.7413C18.8885 18.8063 18.9672 18.8713 19.0464 18.9331C19.0736 18.9544 19.0718 18.9987 19.0422 19.0169C18.6686 19.2461 18.2801 19.4398 17.8716 19.6016C17.845 19.6122 17.8331 19.6447 17.8462 19.6715C18.0714 20.1295 18.3286 20.5655 18.6118 20.9791C18.6236 20.9966 18.6449 21.0041 18.6644 20.9978C19.8901 20.5999 21.1329 19.9995 22.4159 19.0106C22.4271 19.0019 22.4342 18.9887 22.4354 18.9744C22.7482 15.5784 21.9116 12.6285 20.2176 10.0135C20.2135 10.0047 20.2064 9.99848 20.1981 9.99473ZM12.5125 17.1852C11.7734 17.1852 11.1645 16.473 11.1645 15.5984C11.1645 14.7238 11.7616 14.0117 12.5125 14.0117C13.2693 14.0117 13.8724 14.7301 13.8605 15.5984C13.8605 16.473 13.2634 17.1852 12.5125 17.1852ZM17.4967 17.1852C16.7577 17.1852 16.1487 16.473 16.1487 15.5984C16.1487 14.7238 16.7458 14.0117 17.4967 14.0117C18.2535 14.0117 18.8566 14.7301 18.8448 15.5984C18.8448 16.473 18.2535 17.1852 17.4967 17.1852Z" fill="white"/>
</svg>
