<svg width="30" height="30" viewBox="0 0 30 30" fill="none" xmlns="http://www.w3.org/2000/svg">
<g clip-path="url(#clip0_1_38)">
<path d="M29.5 15C29.5 23.0077 23.0077 29.5 15 29.5C6.99233 29.5 0.5 23.0077 0.5 15C0.5 6.99233 6.99233 0.5 15 0.5C23.0094 0.5 29.5 6.99229 29.5 15Z" stroke="white"/>
<path d="M7.4004 15.504L7.46511 15.4023L11.3672 9.29796C11.4242 9.20859 11.5583 9.21783 11.6014 9.31491C12.2533 10.7759 12.8158 12.5929 12.5523 13.724C12.4398 14.1895 12.1316 14.8198 11.7848 15.4023C11.7402 15.4871 11.6908 15.5703 11.6384 15.6504C11.6138 15.6874 11.5722 15.709 11.5275 15.709H7.51443C7.40655 15.709 7.34337 15.5919 7.4004 15.504Z" fill="white"/>
<path d="M24.7933 16.6383V17.6046C24.7933 17.66 24.7594 17.7094 24.7101 17.7309C24.408 17.8604 23.374 18.335 22.944 18.933C21.8467 20.4602 21.0084 22.644 19.1343 22.644H11.3163C8.5454 22.644 6.29999 20.3909 6.29999 17.6107V17.5213C6.29999 17.4474 6.36008 17.3873 6.43406 17.3873H10.7923C10.8786 17.3873 10.9418 17.4674 10.9341 17.5522C10.9033 17.8357 10.9557 18.1255 11.0898 18.389C11.3487 18.9145 11.885 19.2428 12.4644 19.2428H14.622V17.5583H12.4891C12.3797 17.5583 12.315 17.432 12.3781 17.3426C12.4012 17.3071 12.4275 17.2702 12.4552 17.2286C12.6571 16.9419 12.9453 16.4965 13.2319 15.9895C13.4276 15.6474 13.6172 15.2821 13.7697 14.9153C13.8006 14.8491 13.8252 14.7812 13.8499 14.715C13.8915 14.5979 13.9347 14.4884 13.9655 14.379C13.9963 14.2865 14.0209 14.1895 14.0456 14.0985C14.118 13.7872 14.1489 13.4574 14.1489 13.1153C14.1489 12.9812 14.1427 12.841 14.1304 12.7069C14.1242 12.5605 14.1057 12.4141 14.0872 12.2677C14.0749 12.1382 14.0518 12.0103 14.0271 11.8763C13.9963 11.6805 13.9531 11.4864 13.9038 11.2906L13.8869 11.2167C13.8499 11.0826 13.8191 10.9547 13.7759 10.8206C13.6542 10.3999 13.5139 9.98994 13.366 9.60621C13.312 9.45363 13.2504 9.30723 13.1887 9.16083C13.0978 8.94045 13.0053 8.74011 12.9206 8.55054C12.8775 8.46423 12.8405 8.38563 12.8035 8.3055C12.7619 8.21457 12.7187 8.12364 12.6756 8.03736C12.6447 7.97109 12.6093 7.90944 12.5846 7.84779L12.3211 7.3608C12.2841 7.29453 12.3458 7.21593 12.4182 7.23597L14.0672 7.68288H14.0718C14.0749 7.68288 14.0764 7.68444 14.078 7.68444L14.2953 7.74453L14.5341 7.81236L14.622 7.83699V6.85686C14.622 6.38373 15.0011 6 15.4696 6C15.7038 6 15.9165 6.09555 16.0691 6.25119C16.2217 6.40686 16.3172 6.61953 16.3172 6.85686V8.31168L16.4929 8.36097C16.5068 8.36562 16.5206 8.37177 16.533 8.38101C16.5761 8.41338 16.6377 8.46114 16.7163 8.51973C16.778 8.56902 16.8443 8.62914 16.9244 8.69079C17.0831 8.81868 17.2727 8.98359 17.4807 9.17316C17.5362 9.22092 17.5902 9.27024 17.6395 9.31956C17.9076 9.56922 18.2082 9.86202 18.4948 10.1857C18.5749 10.2766 18.6535 10.3691 18.7337 10.4661C18.8138 10.5648 18.8986 10.6619 18.9725 10.759C19.0696 10.8884 19.1744 11.0225 19.2654 11.1627C19.3085 11.229 19.3578 11.2968 19.3994 11.3631C19.5166 11.5403 19.6198 11.7237 19.7185 11.9071C19.7601 11.9918 19.8032 12.0843 19.8402 12.1752C19.9496 12.4203 20.0359 12.6699 20.0914 12.9196C20.1083 12.9735 20.1207 13.0321 20.1268 13.0845V13.0968C20.1453 13.1708 20.1515 13.2494 20.1576 13.3295C20.1823 13.5854 20.17 13.8412 20.1145 14.0985C20.0914 14.208 20.0606 14.3112 20.0236 14.4206C19.9866 14.5254 19.9496 14.6348 19.9018 14.7381C19.8094 14.9523 19.6999 15.1665 19.5705 15.3669C19.5289 15.4409 19.4796 15.5195 19.4302 15.5934C19.3763 15.672 19.3208 15.746 19.2715 15.8184C19.2037 15.9109 19.1313 16.008 19.0573 16.0943C18.991 16.1852 18.9232 16.2761 18.8493 16.3563C18.746 16.478 18.6474 16.5936 18.5441 16.7046C18.4825 16.777 18.4162 16.851 18.3484 16.9172C18.2821 16.9912 18.2143 17.0575 18.1527 17.1191C18.0494 17.2224 17.9631 17.3025 17.8907 17.3688L17.7212 17.5244C17.6965 17.546 17.6641 17.5583 17.6302 17.5583H16.3172V19.2428H17.9693C18.3391 19.2428 18.6905 19.1118 18.9741 18.8714C19.0712 18.7866 19.495 18.4198 19.9958 17.8666C20.0128 17.8481 20.0344 17.8342 20.059 17.828L24.6223 16.5089C24.707 16.4842 24.7933 16.5489 24.7933 16.6383Z" fill="white"/>
</g>
<defs>
<clipPath id="clip0_1_38">
<rect width="30" height="30" fill="white"/>
</clipPath>
</defs>
</svg>
